HIERARCHY
ROOT hip
{
	OFFSET 0.000000 0.000000 0.000000 
	CHANNELS 6 Xposition Yposition Zposition Xrotation Zrotation Yrotation
	JOINT abdomen
	{
		OFFSET 0.000000 3.402643 0.000000 
		CHANNELS 3 Xrotation Zrotation Yrotation
		JOINT chest
		{
			OFFSET 0.000000 8.438565 -0.680529 
			CHANNELS 3 Xrotation Zrotation Yrotation
			JOINT neck
			{
				OFFSET 0.000000 10.207942 -0.272212 
				CHANNELS 3 Xrotation Zrotation Yrotation
				JOINT head
				{
					OFFSET 0.000000 3.130431 0.000000 
					CHANNELS 3 Xrotation Zrotation Yrotation
					End Site
					{
						OFFSET 0.000000 3.130435 0.000000 
					}
				}
			}
			JOINT lCollar
			{
				OFFSET 3.470700 6.669187 -0.816635 
				CHANNELS 3 Yrotation Zrotation Xrotation
				JOINT lShldr
				{
					OFFSET 3.198488 0.000000 0.000000 
					CHANNELS 3 Zrotation Yrotation Xrotation
					JOINT lForeArm
					{
						OFFSET 10.139888 0.000000 0.000000 
						CHANNELS 3 Yrotation Zrotation Xrotation
						JOINT lHand
						{
							OFFSET 8.370511 0.000000 0.000000 
							CHANNELS 3 Zrotation Yrotation Xrotation
							End Site
							{
								OFFSET 4.083176 0.000000 0.000000 
							}
						}
					}
				}
			}
			JOINT rCollar
			{
				OFFSET -3.470700 6.669187 -0.816635 
				CHANNELS 3 Yrotation Zrotation Xrotation
				JOINT rShldr
				{
					OFFSET -3.198488 0.000000 0.000000 
					CHANNELS 3 Zrotation Yrotation Xrotation
					JOINT rForeArm
					{
						OFFSET -10.139888 0.000000 0.000000 
						CHANNELS 3 Yrotation Zrotation Xrotation
						JOINT rHand
						{
							OFFSET -8.370511 0.000000 0.000000 
							CHANNELS 3 Zrotation Yrotation Xrotation
							End Site
							{
								OFFSET -4.083176 0.000000 0.000000 
							}
						}
					}
				}
			}
		}
	}
	JOINT lThigh
	{
		OFFSET 5.308129 -1.633274 1.361059 
		CHANNELS 3 Xrotation Zrotation Yrotation
		JOINT lShin
		{
			OFFSET -2.041588 -20.007561 0.000000 
			CHANNELS 3 Xrotation Zrotation Yrotation
			JOINT lFoot
			{
				OFFSET 0.000000 -19.190928 -1.224953 
				CHANNELS 3 Xrotation Yrotation Zrotation
				End Site
				{
					OFFSET 0.000000 -2.449906 4.627600 
				}
			}
		}
	}
	JOINT rThigh
	{
		OFFSET -5.308129 -1.633274 1.361059 
		CHANNELS 3 Xrotation Zrotation Yrotation
		JOINT rShin
		{
			OFFSET 2.041588 -20.007561 0.000000 
			CHANNELS 3 Xrotation Zrotation Yrotation
			JOINT rFoot
			{
				OFFSET 0.000000 -19.190928 -1.224953 
				CHANNELS 3 Xrotation Yrotation Zrotation
				End Site
				{
					OFFSET 0.000000 -2.449906 4.627600 
				}
			}
		}
	}
}
MOTION
Frames: 10
Frame Time: 0.033333
-59.346504 48.950668 36.741726 0.595706 -0.185537 96.199211 0.000000 0.000000 0.000000 -1.191444 0.458885 -2.558371 12.930656 2.863996 23.118464 -12.500235 -9.652553 30.987698 -2.227954 3.058178 -0.454833 -63.820030 -24.715157 10.871252 -65.661667 -3.799208 28.244768 12.873023 3.643014 -3.470971 -2.250380 6.773963 -0.420125 58.330746 -52.834465 21.540918 44.026478 7.541965 27.134792 1.351033 -3.085249 -3.493549 22.371830 3.799366 8.947359 6.611687 -4.555719 -5.482256 -7.568521 0.058485 -1.033889 -19.459621 -8.533384 -7.202802 14.450542 8.864882 -8.672015 2.789191 -0.001854 0.444353 
-56.891182 49.029819 37.054573 -0.126955 0.322265 96.151634 0.000000 0.000000 0.000000 -1.338134 1.093452 -1.627098 13.059881 3.483124 23.869076 -12.176528 -10.305777 30.932930 -1.491032 3.045569 -0.581810 -64.359146 -20.639532 13.441304 -66.612122 -3.759256 29.110235 12.073866 4.046032 -3.437160 -1.322333 8.429405 -0.544765 57.648769 -50.912888 22.174135 44.222027 7.841588 26.881861 0.575811 -3.140494 -3.492845 19.838837 6.884855 11.912903 17.058992 -5.168271 -9.112552 -4.343148 0.039415 -0.926445 -19.276051 -7.020956 -7.165285 20.326931 8.268542 -8.518810 -0.971501 -0.010548 -0.580405 
-54.652306 49.191910 37.391075 -1.240572 1.337577 95.469093 0.000000 0.000000 0.000000 -0.645014 2.216657 -0.562040 12.838666 4.292310 24.814930 -10.919170 -11.136111 30.626291 -0.587846 3.603538 0.066943 -65.194389 -15.404788 15.412687 -67.106995 -3.952985 29.887869 11.492579 5.091502 -3.341286 -0.162144 10.063482 0.070972 56.796329 -46.973881 22.799904 46.028599 7.896689 26.417789 0.518208 -3.809126 -3.511595 16.782583 10.136134 14.442012 27.273813 -5.085332 -8.867431 4.144567 -0.071696 -3.434458 -16.258774 -4.950806 -7.039791 21.272234 8.199108 -8.315199 -3.376456 0.020166 -1.438736 
-52.642467 49.427734 37.620239 -1.671022 2.079194 96.121033 0.000000 0.000000 0.000000 -0.078217 2.783201 -0.306528 13.208601 4.498058 24.579508 -10.972692 -11.187978 29.971386 -0.288525 4.203891 0.555747 -65.924515 -9.209713 17.682480 -66.416168 -4.571102 30.826740 10.704544 6.455524 -3.248550 0.703902 9.852987 0.501359 57.382481 -41.724472 23.155970 47.497448 7.808049 25.614386 -0.138697 -4.366738 -3.516745 12.199706 12.485844 14.260539 35.144241 -3.237087 -7.823111 15.869246 -1.061095 -7.471486 -11.987834 -4.011637 -7.379275 19.539024 8.592705 -8.947507 -5.587481 0.094630 -2.204038 
-50.811829 49.876736 37.754635 -1.915546 2.254600 95.910995 0.000000 0.000000 0.000000 0.293419 3.173787 0.739417 13.393981 4.913384 24.727692 -10.644381 -11.626892 29.199219 0.721156 4.109251 0.856257 -66.250443 -3.179459 19.152794 -64.282326 -5.701855 32.768963 8.498330 7.007574 -3.271318 1.951970 9.913726 0.764664 56.689980 -35.312309 24.466072 49.019588 7.877360 24.067369 -3.084247 -4.988092 -3.482731 6.861524 13.394817 12.959291 40.813938 -1.431767 -4.656103 21.353153 -1.738867 -9.117379 -8.296648 -2.801100 -6.493270 16.663525 8.114258 -9.666158 -6.209420 0.111388 -2.541987 
-49.177502 50.331661 37.743061 -1.152954 1.864857 94.630463 0.000000 0.000000 0.000000 0.537771 2.841672 2.732191 13.427282 4.667583 25.380928 -10.236568 -11.654711 28.132099 2.089496 3.051881 1.005422 -66.042236 2.959992 19.240494 -61.515156 -7.131255 35.642456 5.325416 7.265292 -3.368492 3.721670 9.755102 0.895993 55.284492 -28.446640 25.052143 50.344109 7.744659 21.080393 -6.012038 -4.677676 -3.458358 -0.069518 12.730541 11.758713 47.852821 -1.238112 -1.143924 19.125294 -1.306845 -7.815674 -5.086797 -2.665436 -6.261911 13.373718 7.251716 -9.226411 -6.508954 0.137145 -2.842332 
-47.408653 50.724171 37.716633 0.000000 1.816406 92.929688 0.000000 0.000000 0.000000 0.772088 2.265420 4.669555 13.605535 3.965653 26.214008 -9.807283 -11.366940 27.210028 3.564379 2.056182 1.192020 -65.579491 10.532133 18.584320 -58.893913 -7.950052 40.270256 2.637356 7.738978 -3.455115 5.140267 8.559176 1.126973 54.326660 -21.075958 25.272749 51.070934 7.642523 17.921412 -8.134004 -4.242023 -3.450218 -5.107085 11.843459 11.295184 51.370121 -2.052469 -3.513728 15.811185 -0.921597 -6.608718 -1.308067 -2.781260 -5.715187 9.802748 6.170210 -8.230587 -6.417623 0.147032 -2.901174 
-45.711277 51.008579 37.555931 1.299767 2.177175 91.172768 0.000000 0.000000 0.000000 1.308935 1.308252 6.006668 14.126032 3.375204 26.785648 -9.639760 -10.939978 26.723833 4.704299 1.541531 1.700184 -65.396751 18.810892 16.341923 -56.517708 -8.415571 43.305450 -0.324885 8.496920 -3.579975 5.818027 7.362758 1.692556 53.521683 -13.372834 24.518623 51.171638 7.337726 17.002680 -10.159890 -3.823213 -3.470716 -9.256812 10.437734 10.964704 52.167850 -3.468889 -7.281007 12.894485 -0.639714 -5.610769 2.840398 -3.719756 -6.009669 6.245707 5.375206 -6.497347 -6.511614 0.154337 -2.984148 
-44.089539 51.137558 37.451481 1.914963 1.756832 89.492592 0.000000 0.000000 0.000000 1.191514 0.771318 6.910704 14.444725 3.016150 27.345589 -9.698341 -11.076004 26.731268 5.680349 1.668867 1.608579 -65.593475 27.463221 13.785067 -54.464931 -8.488230 44.754757 -2.693303 10.608486 -3.760583 6.612431 6.525725 1.609143 53.185699 -6.078025 22.405672 50.742973 6.891506 15.183159 -10.903635 -3.503178 -3.494873 -13.598977 10.229322 11.241616 49.728756 -5.355350 -10.324371 11.991180 -0.565779 -5.391753 6.011319 -4.050219 -6.043114 2.672761 4.806457 -5.130782 -6.708179 0.161839 -3.153406 
-42.408150 51.092762 37.340488 2.403316 1.629426 87.656517 0.000000 0.000000 0.000000 1.337917 0.361230 7.811232 14.501372 2.545271 27.802092 -9.341569 -11.265929 26.480530 6.579194 1.036134 1.765671 -64.001236 35.215508 13.031935 -53.083561 -8.719743 44.691494 -3.960367 12.326887 -3.928938 7.494842 6.061653 1.767864 52.378994 0.796182 19.901264 50.252625 6.460686 13.029915 -10.950247 -3.809933 -3.470141 -16.528732 10.161801 11.574188 44.766006 -7.229465 -10.072017 10.824553 -0.442455 -4.809244 8.479418 -4.586923 -6.422365 1.453915 4.399156 -3.325060 -7.568314 0.202915 -3.335469 
